<svg width="60" height="60" viewBox="0 0 60 60" fill="none" xmlns="http://www.w3.org/2000/svg">
<path d="M2 0H0V60H2V0Z" fill="#000001"/>
<path d="M60 0H0V2H60V0Z" fill="#000001"/>
<path d="M60 58H0V60H60V58Z" fill="#000001"/>
<path d="M4 56H2V58H4V56Z" fill="#000001"/>
<path d="M6 54H4V56H6V54Z" fill="#000001"/>
<path d="M8 52H6V54H8V52Z" fill="#000001"/>
<path d="M10 50H8V52H10V50Z" fill="#000001"/>
<path d="M12 48H10V50H12V48Z" fill="#000001"/>
<path d="M14 46H12V48H14V46Z" fill="#000001"/>
<path d="M16 44H14V46H16V44Z" fill="#000001"/>
<path d="M18 42H16V44H18V42Z" fill="#000001"/>
<path d="M20 40H18V42H20V40Z" fill="#000001"/>
<path d="M22 38H20V40H22V38Z" fill="#000001"/>
<path d="M24 36H22V38H24V36Z" fill="#000001"/>
<path d="M26 34H24V36H26V34Z" fill="#000001"/>
<path d="M28 32H26V34H28V32Z" fill="#000001"/>
<path d="M30 30H28V32H30V30Z" fill="#000001"/>
<path d="M32 28H30V30H32V28Z" fill="#000001"/>
<path d="M34 26H32V28H34V26Z" fill="#000001"/>
<path d="M36 24H34V26H36V24Z" fill="#000001"/>
<path d="M38 22H36V24H38V22Z" fill="#000001"/>
<path d="M40 20H38V22H40V20Z" fill="#000001"/>
<path d="M42 18H40V20H42V18Z" fill="#000001"/>
<path d="M44 16H42V18H44V16Z" fill="#000001"/>
<path d="M46 14H44V16H46V14Z" fill="#000001"/>
<path d="M48 12H46V14H48V12Z" fill="#000001"/>
<path d="M50 10H48V12H50V10Z" fill="#000001"/>
<path d="M52 8H50V10H52V8Z" fill="#000001"/>
<path d="M54 6H52V8H54V6Z" fill="#000001"/>
<path d="M56 4H54V6H56V4Z" fill="#000001"/>
<path d="M58 2H56V4H58V2Z" fill="#000001"/>
<path d="M60 0H58V60H60V0Z" fill="#000001"/>
</svg>
