<svg width="37" height="38" viewBox="0 0 37 38" fill="none" xmlns="http://www.w3.org/2000/svg">
<path d="M30.8334 19V34.8333H6.16671V19M18.5 34.8333V11.0833M18.5 11.0833H11.5625C10.5404 11.0833 9.56003 10.6663 8.83723 9.92396C8.11444 9.18163 7.70837 8.17481 7.70837 7.125C7.70837 6.07518 8.11444 5.06836 8.83723 4.32603C9.56003 3.5837 10.5404 3.16666 11.5625 3.16666C16.9584 3.16666 18.5 11.0833 18.5 11.0833ZM18.5 11.0833H25.4375C26.4597 11.0833 27.4401 10.6663 28.1628 9.92396C28.8856 9.18163 29.2917 8.17481 29.2917 7.125C29.2917 6.07518 28.8856 5.06836 28.1628 4.32603C27.4401 3.5837 26.4597 3.16666 25.4375 3.16666C20.0417 3.16666 18.5 11.0833 18.5 11.0833ZM3.08337 11.0833H33.9167V19H3.08337V11.0833Z" stroke="#2C2C2C" stroke-width="4" stroke-linecap="round" stroke-linejoin="round"/>
</svg>
