<svg width="32" height="33" viewBox="0 0 32 33" fill="none" xmlns="http://www.w3.org/2000/svg">
<path d="M27.1892 13.2979V14.8937H28.7955V24.5H27.1892V26.0958H30.3913V14.8937H31.9976V10.0958H30.3913V13.2979H27.1892Z" fill="#000001"/>
<path d="M30.3912 2.09583H28.7954V6.90422H30.3912V2.09583Z" fill="#000001"/>
<path d="M1.59326 8.50005V10.0958H4.79536V8.50005H9.59326V10.0958H4.79536V11.7021H6.40166V14.8938H4.79536V16.5H6.40166V26.0958H4.79536V27.7022H7.99746V29.298H11.1996V19.7021H14.3912V18.0959H11.1996V14.8938H14.3912V13.2979H11.1996V11.7021H20.7954V13.2979H17.5933V14.8938H20.7954V18.0959H17.5933V19.7021H20.7954V27.7022H19.1996V29.298H17.5933V30.8938H20.7954V29.298H23.9975V27.7022H27.1891V26.0958H25.5933V16.5H27.1891V14.8938H25.5933V11.7021H27.1891V10.0958H22.3912V8.50005H27.1891V10.0958H30.3912V8.50005H28.7954V6.90425H27.1891V3.70215H23.9975V5.29795H20.7954V6.90425H19.1996V3.70215H17.5933V6.90425H14.3912V3.70215H12.7954V8.50005H11.1996V5.29795H7.99746V3.70215H4.79536V6.90425H3.19956V8.50005H1.59326ZM14.3912 8.50005H17.5933V10.0958H14.3912V8.50005Z" fill="#000001"/>
<path d="M28.7956 0.5H22.3914V2.0958H28.7956V0.5Z" fill="#000001"/>
<path d="M22.3913 2.09583H19.1997V3.70212H22.3913V2.09583Z" fill="#000001"/>
<path d="M17.5935 2.09583H14.3914V3.70212H17.5935V2.09583Z" fill="#000001"/>
<path d="M17.5935 30.8937H14.3914V32.5H17.5935V30.8937Z" fill="#000001"/>
<path d="M17.5935 19.7021H14.3914V21.2979H17.5935V19.7021Z" fill="#000001"/>
<path d="M17.5935 14.8937H14.3914V16.5H17.5935V14.8937Z" fill="#000001"/>
<path d="M14.3913 29.2979H11.1997V30.8937H14.3913V29.2979Z" fill="#000001"/>
<path d="M12.7954 2.09583H9.59326V3.70212H12.7954V2.09583Z" fill="#000001"/>
<path d="M9.59341 0.5H3.19971V2.0958H9.59341V0.5Z" fill="#000001"/>
<path d="M3.19966 24.5V14.8937H4.79546V13.2979H1.59336V10.0958H-0.00244141V14.8937H1.59336V26.0958H4.79546V24.5H3.19966Z" fill="#000001"/>
<path d="M3.19956 2.09583H1.59326V6.90422H3.19956V2.09583Z" fill="#000001"/>
</svg>
