<svg width="33" height="33" viewBox="0 0 33 33" fill="none" xmlns="http://www.w3.org/2000/svg">
<path d="M32.8669 12.6899H31.3469V20.3099H32.8669V12.6899Z" fill="#9747FF"/>
<path d="M31.3469 20.3101H29.8169V23.3601H31.3469V20.3101Z" fill="#9747FF"/>
<path d="M31.3469 9.64001H29.8169V12.69H31.3469V9.64001Z" fill="#9747FF"/>
<path d="M29.8169 23.36H28.2969V26.4H29.8169V23.36Z" fill="#9747FF"/>
<path d="M29.8169 6.58997H28.2969V9.63997H29.8169V6.58997Z" fill="#9747FF"/>
<path d="M28.2968 26.4H26.7668V27.93H28.2968V26.4Z" fill="#9747FF"/>
<path d="M28.2968 5.06995H26.7668V6.58995H28.2968V5.06995Z" fill="#9747FF"/>
<path d="M26.767 27.9301H23.7271V29.4501H26.767V27.9301Z" fill="#9747FF"/>
<path d="M26.767 3.55005H23.7271V5.07005H26.767V3.55005Z" fill="#9747FF"/>
<path d="M23.727 29.45H20.677V30.9799H23.727V29.45Z" fill="#9747FF"/>
<path d="M22.1969 23.36H20.6769V15.74H19.1569V14.21H14.5769V15.74H13.0569V26.4H14.5769V27.93H22.1969V26.4H23.7269V24.88H22.1969V23.36Z" fill="#9747FF"/>
<path d="M23.727 2.02002H20.677V3.55002H23.727V2.02002Z" fill="#9747FF"/>
<path d="M20.6769 30.98H13.0569V32.5H20.6769V30.98Z" fill="#9747FF"/>
<path d="M14.5769 12.6899H19.1569V11.1699H20.6769V6.58995H19.1569V5.06995H14.5769V6.58995H13.0569V11.1699H14.5769V12.6899Z" fill="#9747FF"/>
<path d="M20.6769 0.5H13.0569V2.02H20.6769V0.5Z" fill="#9747FF"/>
<path d="M13.0568 29.45H10.0068V30.9799H13.0568V29.45Z" fill="#9747FF"/>
<path d="M13.0568 2.02002H10.0068V3.55002H13.0568V2.02002Z" fill="#9747FF"/>
<path d="M10.007 27.9301H6.95703V29.4501H10.007V27.9301Z" fill="#9747FF"/>
<path d="M10.007 3.55005H6.95703V5.07005H10.007V3.55005Z" fill="#9747FF"/>
<path d="M6.95701 26.4H5.43701V27.93H6.95701V26.4Z" fill="#9747FF"/>
<path d="M6.95701 5.06995H5.43701V6.58995H6.95701V5.06995Z" fill="#9747FF"/>
<path d="M5.43699 23.36H3.91699V26.4H5.43699V23.36Z" fill="#9747FF"/>
<path d="M5.43699 6.58997H3.91699V9.63997H5.43699V6.58997Z" fill="#9747FF"/>
<path d="M3.91696 20.3101H2.38696V23.3601H3.91696V20.3101Z" fill="#9747FF"/>
<path d="M3.91696 9.64001H2.38696V12.69H3.91696V9.64001Z" fill="#9747FF"/>
<path d="M2.38694 12.6899H0.866943V20.3099H2.38694V12.6899Z" fill="#9747FF"/>
</svg>
