<svg width="360" height="344" viewBox="0 0 360 344" fill="none" xmlns="http://www.w3.org/2000/svg">
<path d="M210.879 160.808V153.499V146.189H218.189V87.7136H225.498V51.1663H232.808V43.8569H240.117V36.5474H247.427V29.2379H254.736V21.9285H269.355V14.619H283.974V7.30957H320.521V36.5474H298.593V43.8569H283.974V51.1663H276.664V58.4758H269.355V65.7852H262.045V73.0947H254.736V80.4042V138.88H247.427V146.189H240.117V153.499H232.808V160.808H225.498V182.737H232.808V190.046H240.117V197.355H247.427V204.665H254.736V263.141V270.45H262.045V277.76H269.355V285.069H276.664V292.378H283.974V299.688H298.593V306.997H320.521V336.235H283.974V328.926H269.355V321.616H254.736V314.307H247.427V306.997H240.117V299.688H232.808V292.378H225.498V255.831H218.189V197.355H210.879V190.046V182.737H196.26V175.427H188.95V168.118H196.26V160.808H210.879Z" fill="#01C5FF"/>
<path d="M145.094 160.808V153.499V146.189H137.784V87.7136H130.475V51.1663H123.165V43.8569H115.856V36.5474H108.546V29.2379H101.237V21.9285H86.618V14.619H71.9991V7.30957H35.4518V36.5474H57.3802V43.8569H71.9991V51.1663H79.3086V58.4758H86.618V65.7852H93.9275V73.0947H101.237V80.4042V138.88H108.546V146.189H115.856V153.499H123.165V160.808H130.475V182.737H123.165V190.046H115.856V197.355H108.546V204.665H101.237V263.141V270.45H93.9275V277.76H86.618V285.069H79.3086V292.378H71.9991V299.688H57.3802V306.997H35.4518V336.235H71.9991V328.926H86.618V321.616H101.237V314.307H108.546V306.997H115.856V299.688H123.165V292.378H130.475V255.831H137.784V197.355H145.094V190.046V182.737H159.713V175.427H167.023V168.118H159.713V160.808H145.094Z" fill="#01C5FF"/>
<path d="M328.926 133.157H7.64943V141.694H328.926V133.157Z" fill="white"/>
<path d="M328.926 141.694H53.546V201.454H328.926V141.694Z" fill="white"/>
<path d="M328.926 150.231H53.546V192.917H328.926V150.231Z" fill="white"/>
<path d="M328.926 158.768H53.546V184.38H328.926V158.768Z" fill="white"/>
<path d="M53.546 141.694H38.2472V201.454H53.546V141.694Z" fill="white"/>
<path d="M53.546 150.231H38.2472V192.917H53.546V150.231Z" fill="#898D90"/>
<path d="M53.546 158.768H38.2472V184.38H53.546V158.768Z" fill="white"/>
<path d="M38.2472 141.694H7.64943V201.454H38.2472V141.694Z" fill="white"/>
<path d="M38.2472 150.231H7.64943V192.917H38.2472V150.231Z" fill="white"/>
<path d="M38.2472 158.768H7.64943V184.38H38.2472V158.768Z" fill="white"/>
<path d="M328.926 201.454H7.64943V209.991H328.926V201.454Z" fill="white"/>
<path d="M7.64944 141.694H0V201.454H7.64944V141.694Z" fill="white"/>
<path d="M336.575 141.694H328.926V150.231H336.575V141.694Z" fill="white"/>
<path d="M336.575 150.231H328.926V192.917H336.575V150.231Z" fill="white"/>
<path d="M344.225 158.768H336.575V184.38H344.225V158.768Z" fill="white"/>
<path d="M344.225 150.231H336.575V158.768H344.225V150.231Z" fill="white"/>
<path d="M351.874 158.768H344.225V167.305H351.874V158.768Z" fill="white"/>
<path d="M359.523 167.305H344.225V175.843H359.523V167.305Z" fill="white"/>
<path d="M351.874 175.843H344.225V184.38H351.874V175.843Z" fill="white"/>
<path d="M344.225 184.38H336.575V192.917H344.225V184.38Z" fill="white"/>
<path d="M336.575 192.917H328.926V201.454H336.575V192.917Z" fill="white"/>
<path d="M320.521 138.88H13.5234V146.189H320.521V138.88Z" fill="black"/>
<path d="M320.521 146.189H57.3802V197.355H320.521V146.189Z" fill="#FF7C00"/>
<path d="M320.521 153.499H57.3802V190.046H320.521V153.499Z" fill="#FFB400"/>
<path d="M320.521 160.808H57.3802V182.736H320.521V160.808Z" fill="#FCFF00"/>
<path d="M57.3802 146.189H42.7613V197.355H57.3802V146.189Z" fill="#515353"/>
<path d="M57.3802 153.499H42.7613V190.046H57.3802V153.499Z" fill="#898D90"/>
<path d="M57.3802 160.808H42.7613V182.736H57.3802V160.808Z" fill="#D3D7DA"/>
<path d="M42.7613 146.189H13.5234V197.355H42.7613V146.189Z" fill="#FF1701"/>
<path d="M42.7613 153.499H13.5234V190.046H42.7613V153.499Z" fill="#FF593F"/>
<path d="M42.7613 160.808H13.5234V182.736H42.7613V160.808Z" fill="#FA8D4C"/>
<path d="M320.521 197.355H13.5234V204.665H320.521V197.355Z" fill="black"/>
<path d="M13.5234 146.189H6.21398V197.355H13.5234V146.189Z" fill="black"/>
<path d="M327.83 146.189H320.521V153.499H327.83V146.189Z" fill="black"/>
<path d="M327.83 153.499H320.521V190.046H327.83V153.499Z" fill="#FA8D4C"/>
<path d="M335.14 160.808H327.83V182.736H335.14V160.808Z" fill="#FA8D4C"/>
<path d="M335.14 153.499H327.83V160.808H335.14V153.499Z" fill="black"/>
<path d="M342.449 160.808H335.14V168.118H342.449V160.808Z" fill="black"/>
<path d="M349.759 168.118H335.14V175.427H349.759V168.118Z" fill="black"/>
<path d="M342.449 175.427H335.14V182.736H342.449V175.427Z" fill="black"/>
<path d="M335.14 182.736H327.83V190.046H335.14V182.736Z" fill="black"/>
<path d="M327.83 190.046H320.521V197.355H327.83V190.046Z" fill="black"/>
<path d="M247.427 138.88H254.736V146.189H247.427V138.88Z" fill="#0020FF"/>
<path d="M240.117 146.189H247.426V153.499H240.117V146.189Z" fill="#0020FF"/>
<path d="M232.808 153.499H240.117V160.808H232.808V153.499Z" fill="#0020FF"/>
<path d="M225.498 160.808H232.808V168.118H225.498V160.808Z" fill="#0020FF"/>
<path d="M210.879 87.7134H218.189V146.189H210.879V87.7134Z" fill="#0020FF"/>
<path d="M218.189 51.1663H225.498V87.7136H218.189V51.1663Z" fill="#0020FF"/>
<path d="M210.879 160.808H196.26V153.499H203.57V146.189H210.879V153.499V160.808Z" fill="#0020FF"/>
<path d="M254.736 73.0946H262.045V65.7851H269.355V58.4757H276.664V51.1662H283.974V43.8568H298.593V36.5473H320.521V7.30946H283.974V14.6189H269.355V21.9284H254.736V29.2378H247.426V36.5473H240.117V43.8568H232.808V51.1662H225.498V43.8568V36.5473H232.808V29.2378H240.117V21.9284H247.426V14.6189H254.736H262.045V7.30946H276.664V0H327.831V7.30946V43.8568H320.521H305.902V51.1662H291.283V58.4757H283.974V65.7851H276.664V73.0946H269.355V80.404H262.045V138.88H254.736V80.404V73.0946Z" fill="#0020FF"/>
<path d="M188.951 160.808H196.26V168.118H188.951V160.808Z" fill="#0020FF"/>
<path d="M188.951 175.427H196.26V182.736H188.951V175.427Z" fill="#0020FF"/>
<path d="M181.641 168.118H188.951V175.427H181.641V168.118Z" fill="#0020FF"/>
<path d="M225.498 175.427H232.808V182.736H225.498V175.427Z" fill="#0020FF"/>
<path d="M218.189 168.118H225.498V175.427H218.189V168.118Z" fill="#0020FF"/>
<path d="M247.427 197.355H254.736V204.665H247.427V197.355Z" fill="#0020FF"/>
<path d="M240.117 190.046H247.426V197.355H240.117V190.046Z" fill="#0020FF"/>
<path d="M232.808 182.736H240.117V190.046H232.808V182.736Z" fill="#0020FF"/>
<path d="M232.808 299.688H240.117V306.997H247.426V314.307H254.736V321.616H269.355V328.926H283.974V336.235H320.521V306.997H298.593V299.688H283.974V292.378H276.664V285.069H269.355V277.76H262.045V270.45H254.736V263.141V204.665H262.045V263.141H269.355V270.45H276.664V277.76H283.974V285.069H291.283V292.378H305.902V299.688H320.521H327.831V336.235V343.545H276.664V336.235H262.045V328.926H254.736H247.426V321.616H240.117V314.307H232.808V306.997H225.498V299.688V292.378H232.808V299.688Z" fill="#0020FF"/>
<path d="M210.879 197.355H218.189V255.831H210.879V197.355Z" fill="#0020FF"/>
<path d="M218.189 255.831H225.498V292.378H218.189V255.831Z" fill="#0020FF"/>
<path d="M210.879 190.046V197.355H203.57V190.046H196.26V182.736H210.879V190.046Z" fill="#0020FF"/>
<g style="mix-blend-mode:hue" opacity="0.5">
<path d="M210.879 160.808V153.499V146.189H218.189V87.7136H225.498V51.1663H232.808V43.8569H240.117V36.5474H247.427V29.2379H254.736V21.9285H269.355V14.619H283.974V7.30957H320.521V36.5474H298.593V43.8569H283.974V51.1663H276.664V58.4758H269.355V65.7852H262.045V73.0947H254.736V80.4042V138.88H247.427V146.189H240.117V153.499H232.808V160.808H225.498V168.115H218.189V175.429H225.498V182.737H232.808V190.046H240.117V197.355H247.427V204.665H254.736V263.141V270.45H262.045V277.76H269.355V285.069H276.664V292.378H283.974V299.688H298.593V306.997H320.521V336.235H283.974V328.926H269.355V321.616H254.736V314.307H247.427V306.997H240.117V299.688H232.808V292.378H225.498V255.831H218.189V197.355H210.879V190.046V182.737H196.26V175.429L188.951 175.427V168.118H196.26V160.808H210.879Z" fill="#01C5FF"/>
</g>
<path d="M108.546 138.88H101.237V146.189H108.546V138.88Z" fill="#0020FF"/>
<path d="M115.856 146.189H108.546V153.499H115.856V146.189Z" fill="#0020FF"/>
<path d="M123.165 153.499H115.856V160.808H123.165V153.499Z" fill="#0020FF"/>
<path d="M130.475 160.808H123.165V168.118H130.475V160.808Z" fill="#0020FF"/>
<path d="M145.094 87.7134H137.784V146.189H145.094V87.7134Z" fill="#0020FF"/>
<path d="M137.784 51.1663H130.475V87.7136H137.784V51.1663Z" fill="#0020FF"/>
<path d="M145.094 160.808H159.713V153.499H152.403V146.189H145.094V153.499V160.808Z" fill="#0020FF"/>
<path d="M101.237 73.0946H93.9275V65.7851H86.618V58.4757H79.3086V51.1662H71.9991V43.8568H57.3802V36.5473H35.4518V7.30946H71.9991V14.6189H86.618V21.9284H101.237V29.2378H108.546V36.5473H115.856V43.8568H123.165V51.1662H130.475V43.8568V36.5473H123.165V29.2378H115.856V21.9284H108.546V14.6189H101.237H93.9275V7.30946H79.3086V0H28.1424V7.30946V43.8568H35.4518H50.0707V51.1662H64.6897V58.4757H71.9991V65.7851H79.3086V73.0946H86.618V80.404H93.9275V138.88H101.237V80.404V73.0946Z" fill="#0020FF"/>
<path d="M167.022 160.808H159.713V168.118H167.022V160.808Z" fill="#0020FF"/>
<path d="M167.022 175.427H159.713V182.736H167.022V175.427Z" fill="#0020FF"/>
<path d="M174.332 168.118H167.022V175.427H174.332V168.118Z" fill="#0020FF"/>
<path d="M130.475 175.427H123.165V182.736H130.475V175.427Z" fill="#0020FF"/>
<path d="M137.784 168.118H130.475V175.427H137.784V168.118Z" fill="#0020FF"/>
<path d="M108.546 197.355H101.237V204.665H108.546V197.355Z" fill="#0020FF"/>
<path d="M115.856 190.046H108.546V197.355H115.856V190.046Z" fill="#0020FF"/>
<path d="M123.165 182.736H115.856V190.046H123.165V182.736Z" fill="#0020FF"/>
<path d="M123.165 299.688H115.856V306.997H108.546V314.307H101.237V321.616H86.618V328.926H71.9991V336.235H35.4518V306.997H57.3802V299.688H71.9991V292.378H79.3086V285.069H86.618V277.76H93.9275V270.45H101.237V263.141V204.665H93.9275V263.141H86.618V270.45H79.3086V277.76H71.9991V285.069H64.6897V292.378H50.0707V299.688H35.4518H28.1424V336.235V343.545H79.3086V336.235H93.9275V328.926H101.237H108.546V321.616H115.856V314.307H123.165V306.997H130.475V299.688V292.378H123.165V299.688Z" fill="#0020FF"/>
<path d="M145.094 197.355H137.784V255.831H145.094V197.355Z" fill="#0020FF"/>
<path d="M137.784 255.831H130.475V292.378H137.784V255.831Z" fill="#0020FF"/>
<path d="M145.094 190.046V197.355H152.403V190.046H159.713V182.736H145.094V190.046Z" fill="#0020FF"/>
<g style="mix-blend-mode:hue" opacity="0.5">
<path d="M145.094 160.808V153.499V146.189H137.784V87.7136H130.475V51.1663H123.165V43.8569H115.856V36.5474H108.546V29.2379H101.237V21.9285H86.618V14.619H71.9991V7.30957H35.4518V36.5474H57.3802V43.8569H71.9991V51.1663H79.3086V58.4758H86.618V65.7852H93.9275V73.0947H101.237V80.4042V138.88H108.546V146.189H115.856V153.499H123.165V160.808H130.475V168.115H137.784V175.429H130.475V182.737H123.165V190.046H115.856V197.355H108.546V204.665H101.237V263.141V270.45H93.9275V277.76H86.618V285.069H79.3086V292.378H71.9991V299.688H57.3802V306.997H35.4518V336.235H71.9991V328.926H86.618V321.616H101.237V314.307H108.546V306.997H115.856V299.688H123.165V292.378H130.475V255.831H137.784V197.355H145.094V190.046V182.737H159.713V175.429L167.022 175.427V168.118H159.713V160.808H145.094Z" fill="#01C5FF"/>
</g>
</svg>
