<svg width="415" height="423" viewBox="0 0 415 423" fill="none" xmlns="http://www.w3.org/2000/svg">
<g clip-path="url(#clip0_254_3270)">
<path d="M171.708 198V189V180H162.708V108H153.708V63H144.708V54H135.708V45H126.708V36H117.708V27H99.7083V18H81.7083V9H36.7083V45H63.7083V54H81.7083V63H90.7083V72H99.7083V81H108.708V90H117.708V99V171H126.708V180H135.708V189H144.708V198H153.708V225H144.708V234H135.708V243H126.708V252H117.708V324V333H108.708V342H99.7083V351H90.7083V360H81.7083V369H63.7083V378H36.7083V414H81.7083V405H99.7083V396H117.708V387H126.708V378H135.708V369H144.708V360H153.708V315H162.708V243H171.708V234V225H189.708V198H171.708Z" fill="#2A9DD9"/>
<path d="M378.708 171.19H9.70825V180H378.708V171.19Z" fill="black"/>
<path d="M378.708 180H63.7083V242.81H378.708V180Z" fill="#F1A60B"/>
<path d="M378.708 189H63.7083V234H378.708V189Z" fill="#FECC18"/>
<path d="M378.708 198.19H63.7083V225H378.708V198.19Z" fill="#FED514"/>
<path d="M63.7083 180H45.7083V242.81H63.7083V180Z" fill="#616260"/>
<path d="M63.7083 189H45.7083V234H63.7083V189Z" fill="#717070"/>
<path d="M63.7083 198.19H45.7083V225H63.7083V198.19Z" fill="#808081"/>
<path d="M45.7083 180H9.70825V242.81H45.7083V180Z" fill="#EF7A5C"/>
<path d="M45.7083 189H9.70825V234H45.7083V189Z" fill="#F1886D"/>
<path d="M45.7083 198.19H9.70825V225H45.7083V198.19Z" fill="#F39882"/>
<path d="M378.708 243H9.70825V251.81H378.708V243Z" fill="black"/>
<path d="M9.70825 180H0.708252V234H9.70825V180Z" fill="black"/>
<path d="M387.708 180H378.708V189H387.708V180Z" fill="black"/>
<path d="M387.708 189H378.708V234H387.708V189Z" fill="#FFE1A8"/>
<path d="M396.708 198H387.708V225H396.708V198Z" fill="#FFE1A8"/>
<path d="M396.708 189H387.708V198H396.708V189Z" fill="black"/>
<path d="M405.708 198H396.708V207H405.708V198Z" fill="black"/>
<path d="M414.708 207H396.708V216H414.708V207Z" fill="black"/>
<path d="M405.708 216H396.708V225H405.708V216Z" fill="black"/>
<path d="M396.708 225H387.708V234H396.708V225Z" fill="black"/>
<path d="M387.708 234H378.708V243H387.708V234Z" fill="black"/>
<path d="M297.708 171H288.708V180H297.708V171Z" fill="#0A71A7"/>
<path d="M288.708 180H279.708V189H288.708V180Z" fill="#0A71A7"/>
<path d="M279.708 189H270.708V198H279.708V189Z" fill="#0A71A7"/>
<path d="M270.708 198H261.708V225H270.708V198Z" fill="#0A71A7"/>
<path d="M252.708 108H243.708V180H252.708V108Z" fill="#0A71A7"/>
<path d="M261.708 63H252.708V108H261.708V63Z" fill="#0A71A7"/>
<path d="M243.708 189V180H234.708V189H225.708V198H243.708V189Z" fill="#0A71A7"/>
<path d="M324.708 0V9H306.708V18H297.708H288.708V27H279.708V36H270.708V45H261.708V54V63H270.708V54H279.708V45H288.708V36H297.708V27H315.708V18H333.708V9H378.708V45H351.708V54H333.708V63H324.708V72H315.708V81H306.708V90H297.708V99V171H306.708V99H315.708V90H324.708V81H333.708V72H342.708V63H360.708V54H378.708H387.708V9V0H324.708Z" fill="#0A71A7"/>
<path d="M225.708 198H216.708V225H225.708V198Z" fill="#0A71A7"/>
<path d="M297.708 243H288.708V252H297.708V243Z" fill="#0A71A7"/>
<path d="M288.708 234H279.708V243H288.708V234Z" fill="#0A71A7"/>
<path d="M279.708 225H270.708V234H279.708V225Z" fill="#0A71A7"/>
<path d="M252.708 243H243.708V315H252.708V243Z" fill="#0A71A7"/>
<path d="M261.708 315H252.708V360H261.708V315Z" fill="#0A71A7"/>
<path d="M243.708 225H225.708V234H234.708V243H243.708V234V225Z" fill="#0A71A7"/>
<path d="M297.708 333H306.708V342H315.708V351H324.708V360H333.708V369H351.708V378H378.708V414H333.708V405H315.708V396H297.708V387H288.708V378H279.708V369H270.708V360H261.708V369V378H270.708V387H279.708V396H288.708V405H297.708H306.708V414H324.708V423H387.708V414V369H378.708H360.708V360H342.708V351H333.708V342H324.708V333H315.708V324H306.708V252H297.708V324V333Z" fill="#0A71A7"/>
<path d="M126.708 171H117.708V180H126.708V171Z" fill="#0A71A7"/>
<path d="M135.708 180H126.708V189H135.708V180Z" fill="#0A71A7"/>
<path d="M144.708 189H135.708V198H144.708V189Z" fill="#0A71A7"/>
<path d="M153.708 198H144.708V225H153.708V198Z" fill="#0A71A7"/>
<path d="M171.708 108H162.708V180H171.708V108Z" fill="#0A71A7"/>
<path d="M162.708 63H153.708V108H162.708V63Z" fill="#0A71A7"/>
<path d="M171.708 198H189.708V189H180.708V180H171.708V189V198Z" fill="#0A71A7"/>
<path d="M117.708 90H108.708V81H99.7083V72H90.7083V63H81.7083V54H63.7083V45H36.7083V9H81.7083V18H99.7083V27H117.708V36H126.708V45H135.708V54H144.708V63H153.708V54V45H144.708V36H135.708V27H126.708V18H117.708H108.708V9H90.7083V0H27.7083V9V54H36.7083H54.7083V63H72.7083V72H81.7083V81H90.7083V90H99.7083V99H108.708V171H117.708V99V90Z" fill="#0A71A7"/>
<path d="M198.708 198H189.708V225H198.708V198Z" fill="#0A71A7"/>
<path d="M126.708 243H117.708V252H126.708V243Z" fill="#0A71A7"/>
<path d="M135.708 234H126.708V243H135.708V234Z" fill="#0A71A7"/>
<path d="M144.708 225H135.708V234H144.708V225Z" fill="#0A71A7"/>
<path d="M144.708 369H135.708V378H126.708V387H117.708V396H99.7083V405H81.7083V414H36.7083V378H63.7083V369H81.7083V360H90.7083V351H99.7083V342H108.708V333H117.708V324V252H108.708V324H99.7083V333H90.7083V342H81.7083V351H72.7083V360H54.7083V369H36.7083H27.7083V414V423H90.7083V414H108.708V405H117.708H126.708V396H135.708V387H144.708V378H153.708V369V360H144.708V369Z" fill="#0A71A7"/>
<path d="M171.708 243H162.708V315H171.708V243Z" fill="#0A71A7"/>
<path d="M162.708 315H153.708V360H162.708V315Z" fill="#0A71A7"/>
<path d="M171.708 234V243H180.708V234H189.708V225H171.708V234Z" fill="#0A71A7"/>
<path d="M297.708 90H306.708V81H315.708V72H324.708V63H333.708V54H351.708V45H378.708V9H333.708V18H315.708V27H297.708V36H288.708V45H279.708V54H270.708V63H261.708V108H252.708V180H243.708V189V198H225.708V225H243.708V234V243H252.708V315H261.708V360H270.708V369H279.708V378H288.708V387H297.708V396H315.708V405H333.708V414H378.708V378H351.708V369H333.708V360H324.708V351H315.708V342H306.708V333H297.708V324V252H288.708V243H279.708V234H270.708V225H261.708V198H270.708V189H279.708V180H288.708V171H297.708V99V90Z" fill="#2A9DD9"/>
<g style="mix-blend-mode:hue" opacity="0.5">
<path d="M171.708 198V189V180H162.708V108H153.708V63H144.708V54H135.708V45H126.708V36H117.708V27H99.7083V18H81.7083V9H36.7083V45H63.7083V54H81.7083V63H90.7083V72H99.7083V81H108.708V90H117.708V99V171H126.708V180H135.708V189H144.708V198H153.708V225H144.708V234H135.708V243H126.708V252H117.708V324V333H108.708V342H99.7083V351H90.7083V360H81.7083V369H63.7083V378H36.7083V414H81.7083V405H99.7083V396H117.708V387H126.708V378H135.708V369H144.708V360H153.708V315H162.708V243H171.708V234V225H189.708V198H171.708Z" fill="#2A9DD9"/>
</g>
</g>
<defs>
<clipPath id="clip0_254_3270">
<rect width="414" height="423" fill="white" transform="translate(0.708252)"/>
</clipPath>
</defs>
</svg>
