<svg width="32" height="32" viewBox="0 0 32 32" fill="none" xmlns="http://www.w3.org/2000/svg">
<path fill-rule="evenodd" clip-rule="evenodd" d="M12.95 0.760002H23.62V2.29H12.95V0.760002ZM23.6201 2.29H26.6701V3.81L28.1899 3.81V5.33H26.6699V3.81L23.6201 3.81V2.29ZM29.7199 5.33H28.1899V8.38H29.7199V5.33ZM29.72 8.38H31.24V16H29.72V8.38ZM28.1899 16H29.7199V19.05H28.1899V16ZM26.6699 19.05H28.1899V20.57H26.6699V19.05ZM25.1399 20.57H26.6699V22.1L25.1401 22.1V23.62H23.6201V22.1L25.1399 22.1V20.57ZM26.6699 11.43L25.1401 11.43V9.91H20.5701V11.43L25.1399 11.43V17.52H26.6699V11.43ZM25.1401 17.52H23.6201V19.05H25.1401V17.52ZM23.6201 23.62H22.1001V25.14H23.6201V23.62ZM22.1001 19.05H23.6201V20.57H22.1001V19.05ZM20.5701 25.14H22.1001V26.67H20.5701V25.14ZM20.57 26.67H19.05V28.19H20.57V26.67ZM16 20.57H22.1V22.1H16V20.57ZM20.57 11.43H19.05V12.95H20.57V11.43ZM22.1 8.38H19.05V6.86H17.53V5.33H19.05V3.81H22.1V5.33H23.62V6.86H22.1V8.38ZM19.05 28.19H17.53V29.71H19.05V28.19ZM17.53 12.95H19.05V14.48H17.53V12.95ZM17.53 14.48H16V16H17.53V14.48ZM8.38011 29.71L17.5299 29.71V31.24H8.37988V29.71L6.86011 29.71V28.19H8.38011V29.71ZM16 16H14.48V20.57H16V16ZM14.4799 22.1H11.4299V23.62H9.90991V26.67H11.4299V28.19H14.4799V26.67H15.9999V23.62H14.4799V22.1ZM9.90991 2.29H12.9499V3.81L9.91011 3.81V5.33H6.86011V3.81L9.90991 3.81V2.29ZM9.90988 12.95H12.9499V11.43H14.4799V8.38H12.9499V6.86H9.90988V8.38H8.37988V11.43H9.90988V12.95ZM8.38006 20.57H5.34006V19.05H3.81006V16H5.34006V14.48H8.38006V16H9.91006V19.05H8.38006V20.57ZM6.86006 26.67H3.81006V28.19H6.86006V26.67ZM5.34009 5.33H6.86009V6.86H5.34009V5.33ZM5.34006 6.86H3.81006V9.91H5.34006V6.86ZM2.29004 23.62H3.81004V26.67H2.29004V23.62ZM3.81004 9.91H2.29004V12.95H3.81004V9.91ZM0.76001 12.95H2.29001V23.62H0.76001V12.95Z" fill="black"/>
</svg>
