<svg width="50" height="49" viewBox="0 0 50 49" fill="none" xmlns="http://www.w3.org/2000/svg">
<path d="M25 24.5C22.7084 24.5 20.7466 23.7003 19.1146 22.101C17.4827 20.5017 16.6667 18.5792 16.6667 16.3333C16.6667 14.0875 17.4827 12.1649 19.1146 10.5656C20.7466 8.96632 22.7084 8.16666 25 8.16666C27.2917 8.16666 29.2535 8.96632 30.8855 10.5656C32.5174 12.1649 33.3334 14.0875 33.3334 16.3333C33.3334 18.5792 32.5174 20.5017 30.8855 22.101C29.2535 23.7003 27.2917 24.5 25 24.5ZM8.33337 40.8333V35.1167C8.33337 33.9597 8.63719 32.8963 9.24483 31.9266C9.85247 30.9568 10.6598 30.2167 11.6667 29.7062C13.8195 28.6514 16.007 27.8602 18.2292 27.3328C20.4514 26.8054 22.7084 26.5417 25 26.5417C27.2917 26.5417 29.5487 26.8054 31.7709 27.3328C33.9931 27.8602 36.1806 28.6514 38.3334 29.7062C39.3403 30.2167 40.1476 30.9568 40.7553 31.9266C41.3629 32.8963 41.6667 33.9597 41.6667 35.1167V40.8333H8.33337ZM12.5 36.75H37.5V35.1167C37.5 34.7424 37.4046 34.4021 37.2136 34.0958C37.0226 33.7896 36.7709 33.5514 36.4584 33.3812C34.5834 32.4625 32.691 31.7734 30.7813 31.3141C28.8716 30.8547 26.9445 30.625 25 30.625C23.0556 30.625 21.1285 30.8547 19.2188 31.3141C17.3091 31.7734 15.4167 32.4625 13.5417 33.3812C13.2292 33.5514 12.9775 33.7896 12.7865 34.0958C12.5955 34.4021 12.5 34.7424 12.5 35.1167V36.75ZM25 20.4167C26.1459 20.4167 27.1268 20.0168 27.9428 19.2172C28.7587 18.4175 29.1667 17.4562 29.1667 16.3333C29.1667 15.2104 28.7587 14.2491 27.9428 13.4495C27.1268 12.6498 26.1459 12.25 25 12.25C23.8542 12.25 22.8733 12.6498 22.0573 13.4495C21.2414 14.2491 20.8334 15.2104 20.8334 16.3333C20.8334 17.4562 21.2414 18.4175 22.0573 19.2172C22.8733 20.0168 23.8542 20.4167 25 20.4167Z" fill="#1D1B20"/>
</svg>
