<svg width="32" height="33" viewBox="0 0 32 33" fill="none" xmlns="http://www.w3.org/2000/svg">
<g clip-path="url(#clip0_61_139)">
<path d="M28.28 21.8488C27.4318 23.9174 26.1051 25.7403 24.4158 27.158C22.7266 28.5758 20.7264 29.5452 18.5899 29.9816C16.4535 30.4179 14.2459 30.3079 12.1602 29.6612C10.0745 29.0145 8.17418 27.8507 6.62537 26.2717C5.07656 24.6926 3.92643 22.7463 3.27552 20.6029C2.62462 18.4596 2.49276 16.1844 2.89147 13.9764C3.29019 11.7683 4.20734 9.69461 5.56274 7.93654C6.91814 6.17847 8.67052 4.78956 10.6667 3.89125M29.3333 16.5C29.3333 14.6943 28.9885 12.9063 28.3184 11.2381C27.6483 9.56988 26.6662 8.05409 25.4281 6.77728C24.19 5.50048 22.7201 4.48766 21.1025 3.79666C19.4848 3.10565 17.751 2.75 16 2.75V16.5H29.3333Z" stroke="#2C2C2C" stroke-width="4" stroke-linecap="round" stroke-linejoin="round"/>
</g>
<defs>
<clipPath id="clip0_61_139">
<rect width="32" height="33" fill="white"/>
</clipPath>
</defs>
</svg>
