<svg width="33" height="32" viewBox="0 0 33 32" fill="none" xmlns="http://www.w3.org/2000/svg">
<path d="M30.6757 6.74266H28.9955V5.05699H27.3154V3.37133H25.6242V1.68014H22.2529V0H17.2014V15.1544H32.3669V10.1029H30.6757V6.74266ZM28.9955 11.7941H27.3154V8.4228H25.6242V6.74266H23.9441V5.05699H25.6242V6.74819H27.3154V8.42832H28.9955V11.7941Z" fill="#000001"/>
<path d="M27.3155 21.8971H25.6243V25.2684H27.3155V21.8971Z" fill="#000001"/>
<path d="M13.8413 18.5257V3.37134H10.47V5.05148H12.1501V20.2169H27.3156V21.8971H28.9957V18.5257H13.8413Z" fill="#000001"/>
<path d="M25.6242 25.2684H23.9441V26.9486H25.6242V25.2684Z" fill="#000001"/>
<path d="M23.9441 26.9485H22.2529V28.6286H23.9441V26.9485Z" fill="#000001"/>
<path d="M22.2529 28.6287H18.8926V30.3199H22.2529V28.6287Z" fill="#000001"/>
<path d="M18.8928 30.3198H10.47V32H18.8928V30.3198Z" fill="#000001"/>
<path d="M10.47 28.6287H7.09863V30.3199H10.47V28.6287Z" fill="#000001"/>
<path d="M10.47 5.05151H7.09863V6.74271H10.47V5.05151Z" fill="#000001"/>
<path d="M7.0986 26.9485H5.41846V28.6286H7.0986V26.9485Z" fill="#000001"/>
<path d="M7.0986 6.74268H5.41846V8.42281H7.0986V6.74268Z" fill="#000001"/>
<path d="M5.41849 25.2684H3.72729V26.9486H5.41849V25.2684Z" fill="#000001"/>
<path d="M5.41849 8.42285H3.72729V10.103H5.41849V8.42285Z" fill="#000001"/>
<path d="M3.72726 21.8971H2.04712V25.2684H3.72726V21.8971Z" fill="#000001"/>
<path d="M3.72726 10.1029H2.04712V13.4742H3.72726V10.1029Z" fill="#000001"/>
<path d="M2.04708 13.4742H0.366943V21.897H2.04708V13.4742Z" fill="#000001"/>
</svg>
