<svg width="33" height="33" viewBox="0 0 33 33" fill="none" xmlns="http://www.w3.org/2000/svg">
<path d="M17.089 27.9294H15.5596V32.5H17.089V27.9294Z" fill="#9747FF"/>
<path d="M30.8034 18.7754H29.274V23.346H30.8034V18.7754Z" fill="#9747FF"/>
<path d="M32.3135 12.6879H30.7935V14.2082H32.3135V12.6879Z" fill="#9747FF"/>
<path d="M30.794 14.2075H29.264V15.7279H30.794V14.2075Z" fill="#9747FF"/>
<path d="M29.264 27.925H27.7446V30.9645H29.264V27.925Z" fill="#9747FF"/>
<path d="M27.7447 24.8756H26.2153V27.9251H27.7447V24.8756Z" fill="#9747FF"/>
<path d="M29.2641 15.7273H26.2153V17.257H29.2641V15.7273Z" fill="#9747FF"/>
<path d="M27.7446 30.9645H24.6958V32.4942H27.7446V30.9645Z" fill="#9747FF"/>
<path d="M26.2152 21.8262H24.6958V24.8756H26.2152V21.8262Z" fill="#9747FF"/>
<path d="M26.2158 17.257H24.6958V18.7773H26.2158V17.257Z" fill="#9747FF"/>
<path d="M24.6965 29.4448H23.1765V30.9652H24.6965V29.4448Z" fill="#9747FF"/>
<path d="M24.6959 18.7767H23.1765V21.8262H24.6959V18.7767Z" fill="#9747FF"/>
<path d="M23.1765 27.925H20.1277V29.4448H23.1765V27.925Z" fill="#9747FF"/>
<path d="M30.7934 11.1581H21.6471V12.6878H30.7934V11.1581Z" fill="#9747FF"/>
<path d="M21.6471 8.11865H20.1277V11.1581H21.6471V8.11865Z" fill="#9747FF"/>
<path d="M20.1283 26.3953H18.6083V27.9256H20.1283V26.3953Z" fill="#9747FF"/>
<path d="M20.1277 5.06921H18.6083V8.11866H20.1277V5.06921Z" fill="#9747FF"/>
<path d="M18.6089 24.8756H17.0789V26.3959H18.6089V24.8756Z" fill="#9747FF"/>
<path d="M27.7466 6.59875H23.177V8.11848H27.7466V6.59875Z" fill="#9747FF"/>
<path d="M9.44289 6.59875H4.87329V8.11848H9.44289V6.59875Z" fill="#9747FF"/>
<path d="M4.8838 20.3098H0.314209V21.8295H4.8838V20.3098Z" fill="#9747FF"/>
<path d="M18.5996 29.4591H14.03V30.9788H18.5996V29.4591Z" fill="#9747FF"/>
<path d="M32.3142 20.3051H27.7446V21.8248H32.3142V20.3051Z" fill="#9747FF"/>
<path d="M26.2358 5.06909H24.7064V9.6397H26.2358V5.06909Z" fill="#9747FF"/>
<path d="M7.93197 5.06909H6.40259V9.6397H7.93197V5.06909Z" fill="#9747FF"/>
<path d="M3.37289 18.7802H1.84351V23.3508H3.37289V18.7802Z" fill="#9747FF"/>
<path d="M18.6082 2.01978H17.0789V5.06923H18.6082V2.01978Z" fill="#9747FF"/>
<path d="M17.0796 23.3459H15.5596V24.8763H17.0796V23.3459Z" fill="#9747FF"/>
<path d="M17.0794 0.5H15.5594V2.02034H17.0794V0.5Z" fill="#9747FF"/>
<path d="M15.5602 24.8756H14.0302V26.3959H15.5602V24.8756Z" fill="#9747FF"/>
<path d="M15.5595 2.01978H14.0302V5.06923H15.5595V2.01978Z" fill="#9747FF"/>
<path d="M14.0307 26.3953H12.5107V27.9256H14.0307V26.3953Z" fill="#9747FF"/>
<path d="M14.0301 5.06921H12.5107V8.11866H14.0301V5.06921Z" fill="#9747FF"/>
<path d="M12.5107 8.11865H10.9913V11.1581H12.5107V8.11865Z" fill="#9747FF"/>
<path d="M12.5107 27.925H9.46191V29.4448H12.5107V27.925Z" fill="#9747FF"/>
<path d="M9.46263 29.4448H7.94263V30.9652H9.46263V29.4448Z" fill="#9747FF"/>
<path d="M9.46202 18.7767H7.94263V21.8262H9.46202V18.7767Z" fill="#9747FF"/>
<path d="M7.94249 21.8262H6.4231V24.8756H7.94249V21.8262Z" fill="#9747FF"/>
<path d="M7.9431 17.257H6.4231V18.7773H7.9431V17.257Z" fill="#9747FF"/>
<path d="M7.94258 30.9645H4.8938V32.4942H7.94258V30.9645Z" fill="#9747FF"/>
<path d="M6.42318 24.8756H4.8938V27.9251H6.42318V24.8756Z" fill="#9747FF"/>
<path d="M6.42317 15.7273H3.37439V17.257H6.42317V15.7273Z" fill="#9747FF"/>
<path d="M4.89378 27.925H3.37439V30.9645H4.89378V27.925Z" fill="#9747FF"/>
<path d="M10.9913 11.1581H1.84497V12.6878H10.9913V11.1581Z" fill="#9747FF"/>
<path d="M3.37497 14.2075H1.84497V15.7279H3.37497V14.2075Z" fill="#9747FF"/>
<path d="M1.84568 12.6879H0.325684V14.2082H1.84568V12.6879Z" fill="#9747FF"/>
</svg>
